<?xml version="1.0" encoding="UTF-8" standalone="no"?>
<!DOCTYPE svg PUBLIC "-//W3C//DTD SVG 1.1//EN"
 "http://www.w3.org/Graphics/SVG/1.1/DTD/svg11.dtd">
<!-- Generated by graphviz version 12.1.2 (20240928.0832)
 -->
<!-- Title: snakemake_dag Pages: 1 -->
<svg width="401pt" height="188pt"
 viewBox="0.00 0.00 400.75 188.00" xmlns="http://www.w3.org/2000/svg" xmlns:xlink="http://www.w3.org/1999/xlink">
<g id="graph0" class="graph" transform="scale(1 1) rotate(0) translate(4 184)">
<title>snakemake_dag</title>
<polygon fill="white" stroke="none" points="-4,4 -4,-184 396.75,-184 396.75,4 -4,4"/>
<!-- 0 -->
<g id="node1" class="node">
<title>0</title>
<path fill="none" stroke="#59d856" stroke-width="2" stroke-dasharray="5,2" d="M232.88,-36C232.88,-36 159.88,-36 159.88,-36 153.88,-36 147.88,-30 147.88,-24 147.88,-24 147.88,-12 147.88,-12 147.88,-6 153.88,0 159.88,0 159.88,0 232.88,0 232.88,0 238.88,0 244.88,-6 244.88,-12 244.88,-12 244.88,-24 244.88,-24 244.88,-30 238.88,-36 232.88,-36"/>
<text text-anchor="middle" x="196.38" y="-14.12" font-family="sans" font-size="10.00">convert_txt_to_pdf</text>
</g>
<!-- 1 -->
<g id="node2" class="node">
<title>1</title>
<path fill="none" stroke="#d6d856" stroke-width="2" stroke-dasharray="5,2" d="M228,-108C228,-108 164.75,-108 164.75,-108 158.75,-108 152.75,-102 152.75,-96 152.75,-96 152.75,-84 152.75,-84 152.75,-78 158.75,-72 164.75,-72 164.75,-72 228,-72 228,-72 234,-72 240,-78 240,-84 240,-84 240,-96 240,-96 240,-102 234,-108 228,-108"/>
<text text-anchor="middle" x="196.38" y="-86.12" font-family="sans" font-size="10.00">combine_results</text>
</g>
<!-- 1&#45;&gt;0 -->
<g id="edge1" class="edge">
<title>1&#45;&gt;0</title>
<path fill="none" stroke="grey" stroke-width="2" d="M196.38,-71.34C196.38,-64.75 196.38,-57.08 196.38,-49.67"/>
<polygon fill="grey" stroke="grey" stroke-width="2" points="199.88,-49.93 196.38,-39.93 192.88,-49.93 199.88,-49.93"/>
</g>
<!-- 2 -->
<g id="node3" class="node">
<title>2</title>
<path fill="none" stroke="#56d8d8" stroke-width="2" stroke-dasharray="5,2" d="M106.75,-180C106.75,-180 12,-180 12,-180 6,-180 0,-174 0,-168 0,-168 0,-156 0,-156 0,-150 6,-144 12,-144 12,-144 106.75,-144 106.75,-144 112.75,-144 118.75,-150 118.75,-156 118.75,-156 118.75,-168 118.75,-168 118.75,-174 112.75,-180 106.75,-180"/>
<text text-anchor="middle" x="59.38" y="-163.75" font-family="sans" font-size="10.00">process_sequence_pair</text>
<text text-anchor="middle" x="59.38" y="-152.5" font-family="sans" font-size="10.00">sample: A</text>
</g>
<!-- 2&#45;&gt;1 -->
<g id="edge2" class="edge">
<title>2&#45;&gt;1</title>
<path fill="none" stroke="grey" stroke-width="2" d="M94.3,-143.15C111.21,-134.52 131.74,-124.02 149.95,-114.72"/>
<polygon fill="grey" stroke="grey" stroke-width="2" points="151.51,-117.86 158.82,-110.19 148.32,-111.62 151.51,-117.86"/>
</g>
<!-- 3 -->
<g id="node4" class="node">
<title>3</title>
<path fill="none" stroke="#56d8d8" stroke-width="2" stroke-dasharray="5,2" d="M243.75,-180C243.75,-180 149,-180 149,-180 143,-180 137,-174 137,-168 137,-168 137,-156 137,-156 137,-150 143,-144 149,-144 149,-144 243.75,-144 243.75,-144 249.75,-144 255.75,-150 255.75,-156 255.75,-156 255.75,-168 255.75,-168 255.75,-174 249.75,-180 243.75,-180"/>
<text text-anchor="middle" x="196.38" y="-163.75" font-family="sans" font-size="10.00">process_sequence_pair</text>
<text text-anchor="middle" x="196.38" y="-152.5" font-family="sans" font-size="10.00">sample: B</text>
</g>
<!-- 3&#45;&gt;1 -->
<g id="edge3" class="edge">
<title>3&#45;&gt;1</title>
<path fill="none" stroke="grey" stroke-width="2" d="M196.38,-143.34C196.38,-136.75 196.38,-129.08 196.38,-121.67"/>
<polygon fill="grey" stroke="grey" stroke-width="2" points="199.88,-121.93 196.38,-111.93 192.88,-121.93 199.88,-121.93"/>
</g>
<!-- 4 -->
<g id="node5" class="node">
<title>4</title>
<path fill="none" stroke="#56d8d8" stroke-width="2" stroke-dasharray="5,2" d="M380.75,-180C380.75,-180 286,-180 286,-180 280,-180 274,-174 274,-168 274,-168 274,-156 274,-156 274,-150 280,-144 286,-144 286,-144 380.75,-144 380.75,-144 386.75,-144 392.75,-150 392.75,-156 392.75,-156 392.75,-168 392.75,-168 392.75,-174 386.75,-180 380.75,-180"/>
<text text-anchor="middle" x="333.38" y="-163.75" font-family="sans" font-size="10.00">process_sequence_pair</text>
<text text-anchor="middle" x="333.38" y="-152.5" font-family="sans" font-size="10.00">sample: C</text>
</g>
<!-- 4&#45;&gt;1 -->
<g id="edge4" class="edge">
<title>4&#45;&gt;1</title>
<path fill="none" stroke="grey" stroke-width="2" d="M298.45,-143.15C281.54,-134.52 261.01,-124.02 242.8,-114.72"/>
<polygon fill="grey" stroke="grey" stroke-width="2" points="244.43,-111.62 233.93,-110.19 241.24,-117.86 244.43,-111.62"/>
</g>
</g>
</svg>
