<?xml version="1.0" encoding="UTF-8" standalone="no"?>
<!DOCTYPE svg PUBLIC "-//W3C//DTD SVG 1.1//EN"
 "http://www.w3.org/Graphics/SVG/1.1/DTD/svg11.dtd">
<!-- Generated by graphviz version 12.1.2 (20240928.0832)
 -->
<!-- Title: snakemake_dag Pages: 1 -->
<svg width="204pt" height="188pt"
 viewBox="0.00 0.00 204.12 188.00" xmlns="http://www.w3.org/2000/svg" xmlns:xlink="http://www.w3.org/1999/xlink">
<g id="graph0" class="graph" transform="scale(1 1) rotate(0) translate(4 184)">
<title>snakemake_dag</title>
<polygon fill="white" stroke="none" points="-4,4 -4,-184 200.12,-184 200.12,4 -4,4"/>
<!-- 0 -->
<g id="node1" class="node">
<title>0</title>
<path fill="none" stroke="#d8bc56" stroke-width="2" stroke-dasharray="5,2" d="M130.88,-36C130.88,-36 57.88,-36 57.88,-36 51.88,-36 45.88,-30 45.88,-24 45.88,-24 45.88,-12 45.88,-12 45.88,-6 51.88,0 57.88,0 57.88,0 130.88,0 130.88,0 136.88,0 142.88,-6 142.88,-12 142.88,-12 142.88,-24 142.88,-24 142.88,-30 136.88,-36 130.88,-36"/>
<text text-anchor="middle" x="94.38" y="-14.12" font-family="sans" font-size="10.00">convert_txt_to_pdf</text>
</g>
<!-- 1 -->
<g id="node2" class="node">
<title>1</title>
<path fill="none" stroke="#56d88a" stroke-width="2" stroke-dasharray="5,2" d="M118.88,-108C118.88,-108 69.88,-108 69.88,-108 63.88,-108 57.88,-102 57.88,-96 57.88,-96 57.88,-84 57.88,-84 57.88,-78 63.88,-72 69.88,-72 69.88,-72 118.88,-72 118.88,-72 124.88,-72 130.88,-78 130.88,-84 130.88,-84 130.88,-96 130.88,-96 130.88,-102 124.88,-108 118.88,-108"/>
<text text-anchor="middle" x="94.38" y="-86.12" font-family="sans" font-size="10.00">merge_report</text>
</g>
<!-- 1&#45;&gt;0 -->
<g id="edge1" class="edge">
<title>1&#45;&gt;0</title>
<path fill="none" stroke="grey" stroke-width="2" d="M94.38,-71.34C94.38,-64.75 94.38,-57.08 94.38,-49.67"/>
<polygon fill="grey" stroke="grey" stroke-width="2" points="97.88,-49.93 94.38,-39.93 90.88,-49.93 97.88,-49.93"/>
</g>
<!-- 2 -->
<g id="node3" class="node">
<title>2</title>
<path fill="none" stroke="#56c1d8" stroke-width="2" stroke-dasharray="5,2" d="M70.75,-180C70.75,-180 12,-180 12,-180 6,-180 0,-174 0,-168 0,-168 0,-156 0,-156 0,-150 6,-144 12,-144 12,-144 70.75,-144 70.75,-144 76.75,-144 82.75,-150 82.75,-156 82.75,-156 82.75,-168 82.75,-168 82.75,-174 76.75,-180 70.75,-180"/>
<text text-anchor="middle" x="41.38" y="-158.12" font-family="sans" font-size="10.00">run_benchmark</text>
</g>
<!-- 2&#45;&gt;1 -->
<g id="edge2" class="edge">
<title>2&#45;&gt;1</title>
<path fill="none" stroke="grey" stroke-width="2" d="M54.75,-143.34C60.29,-136.01 66.86,-127.34 73.04,-119.18"/>
<polygon fill="grey" stroke="grey" stroke-width="2" points="75.75,-121.4 78.99,-111.32 70.17,-117.18 75.75,-121.4"/>
</g>
<!-- 3 -->
<g id="node4" class="node">
<title>3</title>
<path fill="none" stroke="#88d856" stroke-width="2" stroke-dasharray="5,2" d="M184.12,-180C184.12,-180 112.62,-180 112.62,-180 106.62,-180 100.62,-174 100.62,-168 100.62,-168 100.62,-156 100.62,-156 100.62,-150 106.62,-144 112.62,-144 112.62,-144 184.12,-144 184.12,-144 190.12,-144 196.12,-150 196.12,-156 196.12,-156 196.12,-168 196.12,-168 196.12,-174 190.12,-180 184.12,-180"/>
<text text-anchor="middle" x="148.38" y="-158.12" font-family="sans" font-size="10.00">generate_answers</text>
</g>
<!-- 3&#45;&gt;1 -->
<g id="edge3" class="edge">
<title>3&#45;&gt;1</title>
<path fill="none" stroke="grey" stroke-width="2" d="M134.75,-143.34C129.1,-136.01 122.41,-127.34 116.11,-119.18"/>
<polygon fill="grey" stroke="grey" stroke-width="2" points="118.91,-117.08 110.03,-111.3 113.37,-121.35 118.91,-117.08"/>
</g>
</g>
</svg>
